<mxfile host="app.diagrams.net" modified="2024-03-27T23:29:29.551Z" agent="Mozilla/5.0 (Windows NT 10.0; Win64; x64) AppleWebKit/537.36 (KHTML, like Gecko) Chrome/119.0.0.0 Safari/537.36 Edg/119.0.0.0" etag="pY2gkvkGNadcwaBV8wdD" version="24.2.0" type="device">
  <diagram name="Página-1" id="tlFQZXRtSZsPq1aK15yX">
    <mxGraphModel dx="2213" dy="793" grid="1" gridSize="10" guides="1" tooltips="1" connect="1" arrows="1" fold="1" page="1" pageScale="1" pageWidth="827" pageHeight="1169" math="0" shadow="0">
      <root>
        <mxCell id="0" />
        <mxCell id="1" parent="0" />
        <mxCell id="8TCTnIdGbLd0vxkZhdPi-5" value="&lt;div&gt;&amp;lt;&amp;lt;enum&amp;gt;&amp;gt;&lt;/div&gt;DiaSemana" style="swimlane;fontStyle=0;childLayout=stackLayout;horizontal=1;startSize=30;horizontalStack=0;resizeParent=1;resizeParentMax=0;resizeLast=0;collapsible=1;marginBottom=0;whiteSpace=wrap;html=1;" vertex="1" parent="1">
          <mxGeometry x="720" y="320" width="140" height="150" as="geometry" />
        </mxCell>
        <mxCell id="8TCTnIdGbLd0vxkZhdPi-6" value="+ SEGUNDA&lt;div&gt;+ TERÇA&lt;/div&gt;&lt;div&gt;+ QUARTA&lt;/div&gt;&lt;div&gt;+ QUINTA&lt;/div&gt;&lt;div&gt;+ SEXTA&lt;/div&gt;&lt;div&gt;+ SÁBADO&lt;/div&gt;&lt;div&gt;+ DOMINGO&lt;/div&gt;&lt;div&gt;&lt;br&gt;&lt;/div&gt;" style="text;strokeColor=none;fillColor=none;align=left;verticalAlign=middle;spacingLeft=4;spacingRight=4;overflow=hidden;points=[[0,0.5],[1,0.5]];portConstraint=eastwest;rotatable=0;whiteSpace=wrap;html=1;" vertex="1" parent="8TCTnIdGbLd0vxkZhdPi-5">
          <mxGeometry y="30" width="140" height="120" as="geometry" />
        </mxCell>
        <mxCell id="8TCTnIdGbLd0vxkZhdPi-10" value="Programa" style="swimlane;fontStyle=0;childLayout=stackLayout;horizontal=1;startSize=30;horizontalStack=0;resizeParent=1;resizeParentMax=0;resizeLast=0;collapsible=1;marginBottom=0;whiteSpace=wrap;html=1;" vertex="1" parent="1">
          <mxGeometry x="330" y="120" width="140" height="60" as="geometry" />
        </mxCell>
        <mxCell id="8TCTnIdGbLd0vxkZhdPi-11" value="main (String []):void" style="text;strokeColor=none;fillColor=none;align=left;verticalAlign=middle;spacingLeft=4;spacingRight=4;overflow=hidden;points=[[0,0.5],[1,0.5]];portConstraint=eastwest;rotatable=0;whiteSpace=wrap;html=1;" vertex="1" parent="8TCTnIdGbLd0vxkZhdPi-10">
          <mxGeometry y="30" width="140" height="30" as="geometry" />
        </mxCell>
        <mxCell id="8TCTnIdGbLd0vxkZhdPi-15" value="Evento" style="swimlane;fontStyle=0;childLayout=stackLayout;horizontal=1;startSize=30;horizontalStack=0;resizeParent=1;resizeParentMax=0;resizeLast=0;collapsible=1;marginBottom=0;whiteSpace=wrap;html=1;" vertex="1" parent="1">
          <mxGeometry x="240" y="310" width="260" height="200" as="geometry" />
        </mxCell>
        <mxCell id="8TCTnIdGbLd0vxkZhdPi-16" value="- titulo: String&lt;div&gt;- descricao: String&lt;/div&gt;&lt;div&gt;- data_inicio: Date&lt;/div&gt;&lt;div&gt;- data_fim: Date&lt;/div&gt;&lt;div&gt;- localizacao: String&lt;/div&gt;&lt;div&gt;&lt;br&gt;&lt;/div&gt;&lt;div&gt;+ Evento (String, String, Date, Date, String)&lt;/div&gt;&lt;div&gt;+ adicionarParticipante (Participante): boolean&lt;/div&gt;&lt;div&gt;+ removerParticipante (Participante): boolean&lt;/div&gt;&lt;div&gt;+ listarParticipante(): void&lt;/div&gt;" style="text;strokeColor=none;fillColor=none;align=left;verticalAlign=middle;spacingLeft=4;spacingRight=4;overflow=hidden;points=[[0,0.5],[1,0.5]];portConstraint=eastwest;rotatable=0;whiteSpace=wrap;html=1;" vertex="1" parent="8TCTnIdGbLd0vxkZhdPi-15">
          <mxGeometry y="30" width="260" height="170" as="geometry" />
        </mxCell>
        <mxCell id="8TCTnIdGbLd0vxkZhdPi-22" value="EventoUnico&lt;span style=&quot;color: rgba(0, 0, 0, 0); font-family: monospace; font-size: 0px; text-align: start; text-wrap: nowrap;&quot;&gt;%3CmxGraphModel%3E%3Croot%3E%3CmxCell%20id%3D%220%22%2F%3E%3CmxCell%20id%3D%221%22%20parent%3D%220%22%2F%3E%3CmxCell%20id%3D%222%22%20value%3D%22Evento%22%20style%3D%22swimlane%3BfontStyle%3D0%3BchildLayout%3DstackLayout%3Bhorizontal%3D1%3BstartSize%3D30%3BhorizontalStack%3D0%3BresizeParent%3D1%3BresizeParentMax%3D0%3BresizeLast%3D0%3Bcollapsible%3D1%3BmarginBottom%3D0%3BwhiteSpace%3Dwrap%3Bhtml%3D1%3B%22%20vertex%3D%221%22%20parent%3D%221%22%3E%3CmxGeometry%20x%3D%22240%22%20y%3D%22310%22%20width%3D%22260%22%20height%3D%22200%22%20as%3D%22geometry%22%2F%3E%3C%2FmxCell%3E%3CmxCell%20id%3D%223%22%20value%3D%22-%20titulo%3A%20String%26lt%3Bdiv%26gt%3B-%20descricao%3A%20String%26lt%3B%2Fdiv%26gt%3B%26lt%3Bdiv%26gt%3B-%20data_inicio%3A%20Date%26lt%3B%2Fdiv%26gt%3B%26lt%3Bdiv%26gt%3B-%20data_fim%3A%20Date%26lt%3B%2Fdiv%26gt%3B%26lt%3Bdiv%26gt%3B-%20localizacao%3A%20String%26lt%3B%2Fdiv%26gt%3B%26lt%3Bdiv%26gt%3B%26lt%3Bbr%26gt%3B%26lt%3B%2Fdiv%26gt%3B%26lt%3Bdiv%26gt%3B%2B%20Evento%20(String%2C%20String%2C%20Date%2C%20Date%2C%20String)%26lt%3B%2Fdiv%26gt%3B%26lt%3Bdiv%26gt%3B%2B%20adicionarParticipante%20(Participante)%3A%20boolean%26lt%3B%2Fdiv%26gt%3B%26lt%3Bdiv%26gt%3B%2B%20removerParticipante%20(Participante)%3A%20boolean%26lt%3B%2Fdiv%26gt%3B%26lt%3Bdiv%26gt%3B%2B%20listarParticipante()%3A%20void%26lt%3B%2Fdiv%26gt%3B%22%20style%3D%22text%3BstrokeColor%3Dnone%3BfillColor%3Dnone%3Balign%3Dleft%3BverticalAlign%3Dmiddle%3BspacingLeft%3D4%3BspacingRight%3D4%3Boverflow%3Dhidden%3Bpoints%3D%5B%5B0%2C0.5%5D%2C%5B1%2C0.5%5D%5D%3BportConstraint%3Deastwest%3Brotatable%3D0%3BwhiteSpace%3Dwrap%3Bhtml%3D1%3B%22%20vertex%3D%221%22%20parent%3D%222%22%3E%3CmxGeometry%20y%3D%2230%22%20width%3D%22260%22%20height%3D%22170%22%20as%3D%22geometry%22%2F%3E%3C%2FmxCell%3E%3C%2Froot%3E%3C%2FmxGraphModel%3E&lt;/span&gt;" style="swimlane;fontStyle=0;childLayout=stackLayout;horizontal=1;startSize=30;horizontalStack=0;resizeParent=1;resizeParentMax=0;resizeLast=0;collapsible=1;marginBottom=0;whiteSpace=wrap;html=1;" vertex="1" parent="1">
          <mxGeometry x="-10" y="580" width="300" height="200" as="geometry" />
        </mxCell>
        <mxCell id="8TCTnIdGbLd0vxkZhdPi-23" value="- titulo: String&lt;div&gt;- descricao: String&lt;/div&gt;&lt;div&gt;- data_inicio: Date&lt;/div&gt;&lt;div&gt;- data_fim: Date&lt;/div&gt;&lt;div&gt;- localizacao: String&lt;/div&gt;&lt;div&gt;&lt;br&gt;&lt;/div&gt;&lt;div&gt;+ EventoUnico (String, String, Date, Date, String)&lt;/div&gt;&lt;div&gt;&lt;br&gt;&lt;/div&gt;" style="text;strokeColor=none;fillColor=none;align=left;verticalAlign=middle;spacingLeft=4;spacingRight=4;overflow=hidden;points=[[0,0.5],[1,0.5]];portConstraint=eastwest;rotatable=0;whiteSpace=wrap;html=1;" vertex="1" parent="8TCTnIdGbLd0vxkZhdPi-22">
          <mxGeometry y="30" width="300" height="170" as="geometry" />
        </mxCell>
        <mxCell id="8TCTnIdGbLd0vxkZhdPi-28" value="EventoRecorrente&lt;span style=&quot;color: rgba(0, 0, 0, 0); font-family: monospace; font-size: 0px; text-align: start; text-wrap: nowrap;&quot;&gt;%3CmxGraphModel%3E%3Croot%3E%3CmxCell%20id%3D%220%22%2F%3E%3CmxCell%20id%3D%221%22%20parent%3D%220%22%2F%3E%3CmxCell%20id%3D%222%22%20value%3D%22Evento%22%20style%3D%22swimlane%3BfontStyle%3D0%3BchildLayout%3DstackLayout%3Bhorizontal%3D1%3BstartSize%3D30%3BhorizontalStack%3D0%3BresizeParent%3D1%3BresizeParentMax%3D0%3BresizeLast%3D0%3Bcollapsible%3D1%3BmarginBottom%3D0%3BwhiteSpace%3Dwrap%3Bhtml%3D1%3B%22%20vertex%3D%221%22%20parent%3D%221%22%3E%3CmxGeometry%20x%3D%22240%22%20y%3D%22310%22%20width%3D%22260%22%20height%3D%22200%22%20as%3D%22geometry%22%2F%3E%3C%2FmxCell%3E%3CmxCell%20id%3D%223%22%20value%3D%22-%20titulo%3A%20String%26lt%3Bdiv%26gt%3B-%20descricao%3A%20String%26lt%3B%2Fdiv%26gt%3B%26lt%3Bdiv%26gt%3B-%20data_inicio%3A%20Date%26lt%3B%2Fdiv%26gt%3B%26lt%3Bdiv%26gt%3B-%20data_fim%3A%20Date%26lt%3B%2Fdiv%26gt%3B%26lt%3Bdiv%26gt%3B-%20localizacao%3A%20String%26lt%3B%2Fdiv%26gt%3B%26lt%3Bdiv%26gt%3B%26lt%3Bbr%26gt%3B%26lt%3B%2Fdiv%26gt%3B%26lt%3Bdiv%26gt%3B%2B%20Evento%20(String%2C%20String%2C%20Date%2C%20Date%2C%20String)%26lt%3B%2Fdiv%26gt%3B%26lt%3Bdiv%26gt%3B%2B%20adicionarParticipante%20(Participante)%3A%20boolean%26lt%3B%2Fdiv%26gt%3B%26lt%3Bdiv%26gt%3B%2B%20removerParticipante%20(Participante)%3A%20boolean%26lt%3B%2Fdiv%26gt%3B%26lt%3Bdiv%26gt%3B%2B%20listarParticipante()%3A%20void%26lt%3B%2Fdiv%26gt%3B%22%20style%3D%22text%3BstrokeColor%3Dnone%3BfillColor%3Dnone%3Balign%3Dleft%3BverticalAlign%3Dmiddle%3BspacingLeft%3D4%3BspacingRight%3D4%3Boverflow%3Dhidden%3Bpoints%3D%5B%5B0%2C0.5%5D%2C%5B1%2C0.5%5D%5D%3BportConstraint%3Deastwest%3Brotatable%3D0%3BwhiteSpace%3Dwrap%3Bhtml%3D1%3B%22%20vertex%3D%221%22%20parent%3D%222%22%3E%3CmxGeometry%20y%3D%2230%22%20width%3D%22260%22%20height%3D%22170%22%20as%3D%22geometry%22%2F%3E%3C%2FmxCell%3E%3C%2Froot%3E%3C%2FmxGraphMode&lt;/span&gt;" style="swimlane;fontStyle=0;childLayout=stackLayout;horizontal=1;startSize=30;horizontalStack=0;resizeParent=1;resizeParentMax=0;resizeLast=0;collapsible=1;marginBottom=0;whiteSpace=wrap;html=1;" vertex="1" parent="1">
          <mxGeometry x="390" y="740" width="300" height="210" as="geometry" />
        </mxCell>
        <mxCell id="8TCTnIdGbLd0vxkZhdPi-29" value="- titulo: String&lt;div&gt;- descricao: String&lt;/div&gt;&lt;div&gt;- data_inicio: Date&lt;/div&gt;&lt;div&gt;- data_fim: Date&lt;/div&gt;&lt;div&gt;- localizacao: String&lt;/div&gt;&lt;div&gt;&lt;br&gt;&lt;/div&gt;&lt;div&gt;+ EventoRecorrente (String, String, Date, Date, String)&lt;/div&gt;" style="text;strokeColor=none;fillColor=none;align=left;verticalAlign=middle;spacingLeft=4;spacingRight=4;overflow=hidden;points=[[0,0.5],[1,0.5]];portConstraint=eastwest;rotatable=0;whiteSpace=wrap;html=1;" vertex="1" parent="8TCTnIdGbLd0vxkZhdPi-28">
          <mxGeometry y="30" width="300" height="180" as="geometry" />
        </mxCell>
        <mxCell id="8TCTnIdGbLd0vxkZhdPi-30" value="EventoPeriodico&lt;span style=&quot;color: rgba(0, 0, 0, 0); font-family: monospace; font-size: 0px; text-align: start; text-wrap: nowrap;&quot;&gt;%3CmxGraphModel%3E%3Croot%3E%3CmxCell%20id%3D%220%22%2F%3E%3CmxCell%20id%3D%221%22%20parent%3D%220%22%2F%3E%3CmxCell%20id%3D%222%22%20value%3D%22Evento%22%20style%3D%22swimlane%3BfontStyle%3D0%3BchildLayout%3DstackLayout%3Bhorizontal%3D1%3BstartSize%3D30%3BhorizontalStack%3D0%3BresizeParent%3D1%3BresizeParentMax%3D0%3BresizeLast%3D0%3Bcollapsible%3D1%3BmarginBottom%3D0%3BwhiteSpace%3Dwrap%3Bhtml%3D1%3B%22%20vertex%3D%221%22%20parent%3D%221%22%3E%3CmxGeometry%20x%3D%22240%22%20y%3D%22310%22%20width%3D%22260%22%20height%3D%22200%22%20as%3D%22geometry%22%2F%3E%3C%2FmxCell%3E%3CmxCell%20id%3D%223%22%20value%3D%22-%20titulo%3A%20String%26lt%3Bdiv%26gt%3B-%20descricao%3A%20String%26lt%3B%2Fdiv%26gt%3B%26lt%3Bdiv%26gt%3B-%20data_inicio%3A%20Date%26lt%3B%2Fdiv%26gt%3B%26lt%3Bdiv%26gt%3B-%20data_fim%3A%20Date%26lt%3B%2Fdiv%26gt%3B%26lt%3Bdiv%26gt%3B-%20localizacao%3A%20String%26lt%3B%2Fdiv%26gt%3B%26lt%3Bdiv%26gt%3B%26lt%3Bbr%26gt%3B%26lt%3B%2Fdiv%26gt%3B%26lt%3Bdiv%26gt%3B%2B%20Evento%20(String%2C%20String%2C%20Date%2C%20Date%2C%20String)%26lt%3B%2Fdiv%26gt%3B%26lt%3Bdiv%26gt%3B%2B%20adicionarParticipante%20(Participante)%3A%20boolean%26lt%3B%2Fdiv%26gt%3B%26lt%3Bdiv%26gt%3B%2B%20removerParticipante%20(Participante)%3A%20boolean%26lt%3B%2Fdiv%26gt%3B%26lt%3Bdiv%26gt%3B%2B%20listarParticipante()%3A%20void%26lt%3B%2Fdiv%26gt%3B%22%20style%3D%22text%3BstrokeColor%3Dnone%3BfillColor%3Dnone%3Balign%3Dleft%3BverticalAlign%3Dmiddle%3BspacingLeft%3D4%3BspacingRight%3D4%3Boverflow%3Dhidden%3Bpoints%3D%5B%5B0%2C0.5%5D%2C%5B1%2C0.5%5D%5D%3BportConstraint%3Deastwest%3Brotatable%3D0%3BwhiteSpace%3Dwrap%3Bhtml%3D1%3B%22%20vertex%3D%221%22%20parent%3D%222%22%3E%3CmxGeometry%20y%3D%2230%22%20width%3D%22260%22%20height%3D%22170%22%20as%3D%22geometry%22%2F%3E%3C%2FmxCell%3E%3C%2Froot%3E%3C%2FmxGraphMode&lt;/span&gt;" style="swimlane;fontStyle=0;childLayout=stackLayout;horizontal=1;startSize=30;horizontalStack=0;resizeParent=1;resizeParentMax=0;resizeLast=0;collapsible=1;marginBottom=0;whiteSpace=wrap;html=1;" vertex="1" parent="1">
          <mxGeometry x="790" y="550" width="300" height="200" as="geometry" />
        </mxCell>
        <mxCell id="8TCTnIdGbLd0vxkZhdPi-31" value="- titulo: String&lt;div&gt;- descricao: String&lt;/div&gt;&lt;div&gt;- data_inicio: Date&lt;/div&gt;&lt;div&gt;- data_fim: Date&lt;/div&gt;&lt;div&gt;- localizacao: String&lt;/div&gt;&lt;div&gt;&lt;br&gt;&lt;/div&gt;&lt;div&gt;+ EventoPeriodico (String, String, Date, Date, String)&lt;/div&gt;" style="text;strokeColor=none;fillColor=none;align=left;verticalAlign=middle;spacingLeft=4;spacingRight=4;overflow=hidden;points=[[0,0.5],[1,0.5]];portConstraint=eastwest;rotatable=0;whiteSpace=wrap;html=1;" vertex="1" parent="8TCTnIdGbLd0vxkZhdPi-30">
          <mxGeometry y="30" width="300" height="170" as="geometry" />
        </mxCell>
        <mxCell id="8TCTnIdGbLd0vxkZhdPi-32" style="edgeStyle=orthogonalEdgeStyle;rounded=0;orthogonalLoop=1;jettySize=auto;html=1;" edge="1" parent="1" source="8TCTnIdGbLd0vxkZhdPi-23" target="8TCTnIdGbLd0vxkZhdPi-16">
          <mxGeometry relative="1" as="geometry" />
        </mxCell>
        <mxCell id="8TCTnIdGbLd0vxkZhdPi-33" style="edgeStyle=orthogonalEdgeStyle;rounded=0;orthogonalLoop=1;jettySize=auto;html=1;" edge="1" parent="1" source="8TCTnIdGbLd0vxkZhdPi-29" target="8TCTnIdGbLd0vxkZhdPi-16">
          <mxGeometry relative="1" as="geometry" />
        </mxCell>
        <mxCell id="8TCTnIdGbLd0vxkZhdPi-34" style="edgeStyle=orthogonalEdgeStyle;rounded=0;orthogonalLoop=1;jettySize=auto;html=1;" edge="1" parent="1" source="8TCTnIdGbLd0vxkZhdPi-31" target="8TCTnIdGbLd0vxkZhdPi-16">
          <mxGeometry relative="1" as="geometry" />
        </mxCell>
        <mxCell id="8TCTnIdGbLd0vxkZhdPi-35" style="edgeStyle=orthogonalEdgeStyle;rounded=0;orthogonalLoop=1;jettySize=auto;html=1;entryX=1;entryY=-0.005;entryDx=0;entryDy=0;entryPerimeter=0;" edge="1" parent="1" source="8TCTnIdGbLd0vxkZhdPi-5" target="8TCTnIdGbLd0vxkZhdPi-16">
          <mxGeometry relative="1" as="geometry" />
        </mxCell>
      </root>
    </mxGraphModel>
  </diagram>
</mxfile>
